<svg xmlns="http://www.w3.org/2000/svg" viewBox="0 0 337.24 329.25"><defs><style>.cls-1,.cls-2,.cls-3{fill:none;stroke:#231f20;stroke-miterlimit:10;}.cls-1{stroke-width:5px;}.cls-2{stroke-width:4px;}.cls-3{stroke-width:2px;}</style></defs><g id="Layer_2" data-name="Layer 2"><g id="Layer_1-2" data-name="Layer 1"><path class="cls-1" d="M156.7,3.77c.18,6.09,2.81,325.21,2.81,325.21,1.93-17.46,10.45-74.24,58.23-119.64a190,190,0,0,1,77-44.15l-266.07,2.3c4.13,12.47,17.76,48.87,45.69,55.26,9.67,2.22,28.15,2.47,88.21-56.41,56.52-55.4,101-99.06,88.48-126.86-7.64-16.88-35.46-26-53.2-17.8C178,30.83,170.52,61.76,176.63,81c11.24,35.38,75.6,54,160.41,47.32"/><line class="cls-1" x1="198.57" y1="3.41" x2="199.97" y2="166.01"/><line class="cls-2" x1="117.7" y1="4.11" x2="119.11" y2="166.71"/><polyline class="cls-1" points="27.27 4.89 295.09 2.58 28.68 167.49 294.75 165.19"/><path class="cls-3" d="M117.53,24c-10.16-5.38-21.19-9.28-32.17-6.19-6,2.05-12.94,7.12-11.88,14.11,2.12,14,20.15,16.82,32.11,11.72,2.91-10-8.16-17.93-16.19-20.86-12-2.9-25.07-8.79-37-1.68-6,3.05-3.9,12,1.15,17C60.58,43,67.6,45,75.6,45.89c5-5,.88-14-3.15-18C61.38,20,48.35,17.12,35.36,17.24c-3,1-7,2.06-10,5.08-3.95,6-3.89,13,1.15,18,8.07,7.93,20.06,6.83,30,3.74-1.11-12-9.19-21.92-21.21-23.81-8-.94-14,2.12-18.93,8.16-5.93,8.05,1.15,17,9.17,19.92,6,2,13,2.89,20,.83,6-2,12.94-7.11,10.87-15.1A18.28,18.28,0,0,0,41.39,21.18c-13-1.88-23.95,6.21-28.85,17.25-3.93,8-2.85,18,2.22,26,6.07,8,15.11,11.87,25.12,13.79a28.88,28.88,0,0,0,18-3.16c2-1,4-3,2.94-6l-3-3c-12.09-9.89-32.08-8.72-42,4.37C17.9,80.39,29,87.29,39,89.21c6,.94,11-.1,16-1.14C60.94,85,67.91,81,68.85,74a20.18,20.18,0,0,0-6.16-18c-13.08-8.89-31.06-6.73-39.94,7.35-5.91,10.05-.81,22,7.25,28.93,6,4,12.07,7.9,20.06,6.83A22.82,22.82,0,0,0,62,93C66,86,67.89,79,66.82,71,64.74,62,57.67,54,48.67,53.12c-3,0-5,1-7,4.06-6.89,13.06-2.76,28,6.34,38.95,2,1,3,3,5,5,5,4,13.06,6.88,19,2.83C81.94,84.84,82.71,57.83,63.58,43c-4-3-10-2.91-15-1.87s-9,5.08-10.91,10.1c-4.86,16,4.27,31,14.37,42.87,6,6,16.08,8.87,24,3.8,4-3,7-6.06,7.91-11.07,4.75-29-22.47-53.81-49.47-53.58a19.36,19.36,0,0,0-14.94,7.13c-3,4-.92,9,1.12,13C29.78,66.29,45.85,74.15,60.8,69c7-3.06,8.9-12.08,7.84-19.07C66.57,42,61.53,37,55.48,32.06c-8-4.93-20.09-10.83-28-3.76-1.9,12,5.21,24,17.22,25.86,7-3.06,7.89-13.07,2.2-17.71"/><path class="cls-3" d="M117.26,8.58c-6-6-16-5.91-23-1.85-5,3-5.93,9-4.88,14a15.86,15.86,0,0,0,10.07,7.91c4,0,10-1.08,13-5.11-8.07-7.93-19.07-8.84-29.07-7.75C73.36,17.91,64.41,23,61.5,34c-1.92,9,3.15,17,10.18,20.91,7,2.94,16,3.86,21-3.18,4-5,2.91-10-.13-15C85.45,27.8,74.44,26.9,64.45,28c-8,1.07-16,6.14-16.88,14.15.15,17,19.19,21.84,33.2,22.71,5,0,12-3.1,10.91-10.09-1-4-4.06-7-7.08-9.94C75.54,38.89,66.54,38,56.54,39.05c-8,1.07-14.95,5.13-16.88,13.15C36.82,71.22,54,87.08,72,86.92c5,0,10-3.08,10.92-9.09.94-7-3.1-12-9.13-14.92-9-4.93-20-1.83-25.95,5.22-3,3-5.94,7.05-4.9,12,1.06,7,4.1,12,10.13,14.92a19.81,19.81,0,0,0,25-3.22c4.86-16-12.27-30.9-27.27-31.77-8,.07-11.94,7.11-11.88,14.11q-1.44,7.52,3.13,15C48.05,97.13,60.11,104,69.05,98c1-4-1.07-8-4.09-11-11.1-10.9-27.13-14.76-42.11-12.63A13,13,0,0,0,15,95.41c8.09,9.93,20.12,13.83,32.12,13.73,2,0,9,1.92,8-5.07-8.06-5.93-19-2.84-25,4.21-1,2-1,5-.94,7,1.05,6,6.09,9.95,11.09,9.91,8-.07,16-5.14,19.89-13.18,3.92-9,3.82-20-4.24-27-9.07-7.92-24.07-8.79-33,.28-5.94,7.06-5.85,17.06-1.78,25,8.12,13.93,25.23,26.78,41.18,20.65l3,0c3-3,8-5.07,7.92-9.07,0-5-2.09-11-8.11-12.93-1,0-1-2-2-2-10-3.91-23.07-7.8-31,2.27-1,2-2,3-3,5-1.94,7,1.14,16,7.18,20.94a39.34,39.34,0,0,0,39.06,5.66c3.91-10-4.18-20-14.2-22.87-9-1.93-17,2.14-22.92,9.19-3,5-3.91,11-.87,16,9.13,14.92,34.22,24.71,47.09,9.6,2-3-2.06-7-4.08-9-7-4.94-17.07-7.85-25.76-4.64,5.92,12.16,9.53-2.91,0,0,5.92,12.16,21.5,18.18,34.37,15.86,5.84-1,14.44-5.06,13.2-12.35C101.05,135.61,92.11,132,86,130.65A36.42,36.42,0,0,0,61,134c10.79,11.35,29.05,17.59,44.54,14.61,6,0,11.93-5.1,8.88-11.07-5.06-7-14.08-8.88-22.09-9.81-5-1-11-.91-15,4.13-4.93,8-.85,18,7.19,21.94a24.86,24.86,0,0,0,25-2.22c6-5,7.89-13.07,6.82-21.06-3.12-13-15.18-20.87-27.22-24.77-3,0-7-.94-9,2.08-4,5-1.91,10,1.12,14a16.16,16.16,0,0,0,15,5.87c14-1.12,20.87-15.18,16.77-27.14-4.1-11-13.16-17.89-23.19-21.8-8-2.93-18.06-6.85-26-2.78C62.92,82,68,86,72,88.92c7,2.94,14,5.88,22,2.81,11-5.09,12.83-20.11,3.76-28a41.3,41.3,0,0,0-26.35-10c.14,6.1,3.93.31,0,0,.14,6.1,8.18,7.54,12.81,7.19,5.53-.41,12.37-1.61,17.22-4.46,10.62-6.26,4-18.87-4.78-22.94-6.11-2.83-13-3.39-19.68-3.68-.57,8.54,9.46,13,16.43,13.86,7.82,1,17.62.69,25.1-2.14"/><path class="cls-3" d="M116.59,16.53c-4.26-7-16.9-5.17-22.33-.92,6.22,4.59,15.55,4.52,22.14.75"/><path class="cls-3" d="M118.23,35.72C112.6,29.45,105,24.09,96.17,26.11c-3.25.74-6.78,2.44-8.48,5.45-.68,1.21-1.33,2.8-.54,3.84,1.06,1.42,4.68,1.37,6.19,1.24,7.8-.71,18.55-8.5,20.16-16.46.73-3.63-.78-7.79-4.3-9.38-2.81-1.28-7.37-.67-9.08,2.17-4.4,7.33,14,13.83,16.8,6.46"/><path class="cls-3" d="M117.43,110.72c-5.23-4.82-13.09-7.17-20-5.17-6.1,1.76-11.91,7.29-12,14-.17,12.8,21,17,26.13,5.48,6.82-15.23-14.73-24.75-26.45-25.07-2.19-.06-2.81.77-3.46,3a9.6,9.6,0,0,0-.06,5,13.31,13.31,0,0,0,6.69,8.17c5.48,3.14,17.07,6.17,21.89.55,6.27-7.3-2.44-15.1-8.4-18.56A85.47,85.47,0,0,0,73.89,88a48.41,48.41,0,0,0,21.79,11.5c6.42,1.55,18.15,3.61,19.6-5.58C117.44,80.27,80,67.7,78.06,77.87c-1.34,7,11.15,11,16.06,11.87,6.08,1.09,14.22.18,16.7-6.51,2.53-6.85-3.73-13.86-8.87-17.49-3.37-2.37-7.66-4.61-11.91-4.25-3,.25-6.44,2.45-6.37,5.87C83.82,74,95.58,74.7,100,73.28c6.74-2.15,10.34-9.37,7.31-16s-11.58-8.68-18.21-6.78c-7,2-12,9.15-4.77,14.35C96.63,73.73,117,63,117.75,48.31c.37-7.35-3.9-15.41-10.83-18.38C99,26.54,91.2,33.1,90.09,40.89a25.86,25.86,0,0,0,0,6.46,20.32,20.32,0,0,0,.48,3.4c.54,1.8-.08,1.75,1.86,1.54,3.4-.37,7-3.46,8.61-6.3,3.82-6.62-.9-14.49-7.77-16.46-7.07-2-14.83,3.65-8.72,10.37,5.37,5.91,14.93,6.6,22.35,5.67a37.11,37.11,0,0,0,11.71-3.45"/><path class="cls-3" d="M117.58,108.9c-4.72-2.18-28.47-10.93-25.29,2.36,2.1,8.8,16.22,21.17,25.74,17.67"/><path class="cls-3" d="M117.71,26.92c-2.52-6.19-8.4-10.49-14.12-13.52-5.43-2.88-12-5.85-18.27-5.33-7.46.61-8.7,6.84-6.32,13A29.43,29.43,0,0,0,90.76,35.05c5.15,3.3,12.52,6.25,18.71,4.75,8-1.95,5.81-9.91,1.57-14.53-4.74-5.16-11.37-9.1-17.61-12.15A80.88,80.88,0,0,0,83.16,9c-3.07-1-7.62-3-10.89-2.74C70.6,6.34,70.53,7,70,8.79a19.35,19.35,0,0,0-.78,3.91,20.78,20.78,0,0,0,.86,7.91A25,25,0,0,0,79.63,33.7c5.1,3.58,12.18,5.69,18.33,3.93s8.78-7.74,6.39-13.59C101.77,17.7,94.93,15,88.63,13.82c-5.94-1.08-15.38-2.55-20.73,1-4.94,3.3-3.73,10-.05,13.82,5,5.11,13.38,5.39,20,5.54,2.83.06,6.75.46,9.1-1.5,2.69-2.25,1.18-5.28-.93-7.29-5-4.82-13.66-8-20.31-9.58-9.48-2.29-31.31.82-27.63,15.5,3,12.13,20.49,14.12,28,5.37,8.37-9.81,2-22.07-9.13-25.67C54.51,7,36.41,13.4,40.79,29.21,44.35,42,61.1,50.45,72.53,41.59c11.68-9.05,3.52-24.07-6.78-29.8-11.07-6.15-30-9.4-36.15,5-5.4,12.5,7.1,24.92,19,26.67,8,1.18,9.43-6.19,6.83-12.21-2.39-5.52-7.47-9.64-13-11.79-11.82-4.59-26.51.83-30.81,13.26s6.52,22.76,17.94,24.9c10.39,2,29.38-5.88,21.17-19.06-7.13-11.44-24.12-9.14-30,2.22C14.5,52.91,26.15,64.39,37.49,67c5.47,1.24,12.89.93,16.95-3.52,4.51-4.95,1.19-11.73-3.56-15.09C44.75,44,36.38,44.1,29.19,44.07c-6.5,0-14.64,0-18.71,6.06-8.79,13,8.69,24.13,18.74,28,6.72,2.58,15.25,4,21.16-1.18,5.39-4.68,4-11-1.85-14.4C42,58.76,33.52,57.42,26.09,57c-6.32-.32-15.82-.68-19.77,5.39C-1,73.67,15.47,86.78,24.86,89c6.21,1.46,14.11-.1,17.46-6.13,3.06-5.48-.91-10.48-5.83-12.83C27.92,66,7.56,63.55,2.72,74.41c-3,6.74,2.15,13.43,7.41,17.14,5.74,4.06,13.79,8.49,20.95,8.72,5.47.18,14.36-4.73,9.64-11.09-3.56-4.8-12.33-7.24-17.85-8.53-6.27-1.47-13.8-1.49-18.48,3.64C.13,89,.19,95.92,2.87,101.33c4.17,8.42,22.66,28,30.64,13.27,2.91-5.37-.63-10.53-5.76-12.63a16.76,16.76,0,0,0-17,2.75c-10.09,8.47-7.71,23,1.24,31.2,8.07,7.42,24.51,11.29,32.54,1.48C53.8,126,33.78,117.58,25.6,115.76c-5.08-1.13-12.46-2-16.45,2.18-5.23,5.52.72,13.62,4.87,17.78,4.9,4.92,12,9.19,19,9.79,6.5.55,14.77-4.71,9.19-11.47-4.29-5.18-11.32-9.35-18.11-9.55-5.89-.17-12.95,2.67-13.8,9.22-2,15.21,20.1,17.93,30.5,16.44,4.68-.67,11.5-2.51,13.59-7.33,2.64-6.11-4.86-10.55-9.4-12.71-5.21-2.46-11.58-4.16-17.33-2.84s-9.66,6.14-8.34,12.07c1.5,6.75,7.85,10.57,14,12.36a60.06,60.06,0,0,0,10.82,1.88c2.8.27,6.59.89,9.12-.74,7.27-4.67-6.91-10.94-10.06-12.35-6.51-2.91-14-4.81-20.79-1.51-4.91,2.4-8.61,7.83-5.13,13,3.1,4.61,9.76,6.27,14.93,6.84,8.94,1,26-1.38,28-12.45,2.4-12.87-18.41-16.85-23.36-5.59-2.35,5.37.12,10.77,5.23,13.29,5.79,2.86,12.82,2,18.3-1.13,9.9-5.59,21.75-24.06,5.22-29.16a28.72,28.72,0,0,0-18.09.73c-4.58,1.78-12.17,6.82-8.23,12.56,3.69,5.37,13.88,7.95,19.81,9.56C66.35,148.6,74.55,150,82,149.21c7.88-.85,7.29-7.27,1.79-11.11-5.7-4-14.8-5.31-21.46-3.53-5.6,1.5-12.07,7.4-8.79,13.66,2.74,5.24,10.11,6.71,15.36,7.75,8.81,1.75,25.94,4,29.87-7.12,5.35-15.15-20.24-22.81-30.55-24.1-6.6-.83-14.48.24-19.09,5.58-4.06,4.71-2.85,10.94,1.28,15.17,9.25,9.48,30.24,5.35,36.33-6.22,6.8-12.93-16-19.46-24.28-21.28-7.29-1.6-15.35-2.17-22.08,1.67-5.68,3.24-8.63,9.23-5.75,15.47,5.87,12.67,24,16.06,36.3,13.12,6.06-1.46,13.51-5,15.59-11.39,1.88-5.81-2.55-10.21-7.58-12.15-7.69-3-33.2-4-27.06,10.7,5.35,12.82,25.07,15.49,36.86,12.78,4.87-1.13,13.36-4.81,9.27-11.14-3.4-5.28-12-7.14-17.66-8.26-6.57-1.29-15.41-1-19.47,5.32s2.33,11.94,7.44,14.79c13.39,7.46,29.89,10.2,45.05,9.15,2.49-.18,2.37-.73,1.83-3.06a15.5,15.5,0,0,0-1.75-4.28,22.08,22.08,0,0,0-6.83-7c-6.2-4.18-13.91-5.53-21.23-6-4.76-.34-17.28-1.32-14.6,7.15,2.06,6.52,13.07,8.18,18.79,8.86,6.38.75,14.91-.47,18-7s-3.75-12.73-8.9-15.62-12.46-4.73-17.46-.72-3.79,11.51.89,15.29c8.74,7.08,30.13,4.7,31-9.08C114,124,95.45,117.29,85.42,118c-6.49.49-11.86,4.59-9.69,11.68,1.76,5.77,7.39,9.7,13,11.11,11.18,2.8,26.05-6.62,22-19.44-3.36-10.64-23.61-17.28-30.08-6-2.9,5.07.59,11.1,4.54,14.43,5,4.19,13,6.32,18.91,2.91a14,14,0,0,0,6.66-13c-.5-6-5.28-10.64-10.29-13.46a38.91,38.91,0,0,0-9.21-3.63c-1.77-.46-2.85-1-4.36,0a9.87,9.87,0,0,0-2.64,3.13,15.94,15.94,0,0,0-.13,15.59c5.93,11.21,22.57,14.33,34,12"/><path class="cls-3" d="M118.26,33c-6.83-7.44-15.86-11.36-25.87-12.28a8.72,8.72,0,0,0-8,6.07c-1.92,9,2.16,19,11.2,22.91,7,2.93,14,1.87,19-4.17,3-5,.92-10-1.13-15-7.08-9.94-20.13-14.83-32.11-12.72-5,1-9,3.08-10.93,8.09C67.54,38,79.6,45.85,90.62,47.76c10,.91,24,1.79,27.7-10.12"/><path class="cls-3" d="M119.05,54.88c-11.06-8.53-33.92-6-32.34,11.89,1.34,15.18,25.34,16.78,26.43.64,1-14.52-15.23-24-27.67-17.33C80.08,53,75.64,58.61,76.36,65s6,11.54,11.8,13.9c12.08,4.94,29-3.16,29.26-17.23.28-13.57-15.8-24.32-28.4-20.34C72,46.74,89,67.68,101.09,66.29c13.68-1.56,10.54-26.58,4.85-34-8.06-10.46-28.59-7.88-25.18,8.15,2.79,13.11,19.43,20.89,31.15,14.31a19.37,19.37,0,0,0,6.66-6.13"/><path class="cls-3" d="M119.57,89.14c-5.57-11.7-24.18-16.08-31-3-6.52,12.53,11,21.53,21.08,16.29,12.75-6.61,9.38-22.2,1.24-30.89-4.34-4.63-11.72-11.75-18.6-11.17-6.7.57-9.07,8.23-7.73,13.89,3.63,15.25,23.32,18.91,34.71,10.29"/><path class="cls-3" d="M89.51,132.3c-4.92-10.67-20.32-12.41-30.24-8.81-4.58,1.66-9.76,6-7.72,11.49s10,5.14,14.59,3.52C76,135,81.92,123.66,75,114.68c-5.69-7.4-23.47-12.1-27.56-.41-2.08,5.93,3.09,9.86,8.5,10.26A16.41,16.41,0,0,0,69,119.19c6.45-7,4.85-17.12-4-21-7-3.09-22.19-2.28-23.2,7.86s15.42,9.8,21.07,6.35C70,108,74,98.45,70.62,90.54c-1.81-4.26-6.33-8.59-11.3-8-5.66.61-7.82,8.81-8.42,13.5-1.37,10.78,6.94,20.35,18.15,18.82,11.43-1.55,12-15.16,4.52-21.82-4.14-3.67-10.65-5.32-15-1-3.51,3.51-4,9-2.24,13.48C59.66,114,74.52,123,82.6,115.12c3.76-3.65,1.9-9.72-1.39-13a17.62,17.62,0,0,0-11.77-4.79c-9.95-.24-14.74,9.81-6.7,16.53s19.76,2.34,23.31-7.11c4-10.76-4.45-20.3-13.16-25.43-4.35-2.55-11-6.07-16-3.58-4.72,2.33-4.38,8.47-2.15,12.45,4.34,7.76,15.18,10.86,23.46,9a19.07,19.07,0,0,0,11.25-7.34"/><path class="cls-3" d="M120.53,145.66c-8.51-3-24,.33-22.38,12.12,1.33,9.95,15.28,9.91,20.67,3.53"/><path class="cls-3" d="M118.06,144c1.06-2.68-2-4.65-4-6.64-3-1-6-3.94-10-1.91-9,4.08-21.88,13.19-15.79,24.14s20,5.82,29.8.45"/><path class="cls-3" d="M200.33,22.74c10.26-5.2,21.36-8.91,32.28-5.63,5.94,2.16,12.81,7.34,11.63,14.31-2.37,13.95-20.44,16.47-32.31,11.16C209.2,32.5,220.4,24.8,228.48,22c12.07-2.69,25.23-8.34,37-1,5.92,3.16,3.68,12.1-1.45,17-7.13,4.81-14.18,6.63-22.2,7.42-4.87-5.13-.63-14,3.47-17.92,11.21-7.71,24.28-10.36,37.28-10,3,1.08,6.94,2.18,9.86,5.26,3.84,6.1,3.66,13.1-1.47,18-8.21,7.78-20.18,6.47-30.1,3.21,1.32-12,9.58-21.76,21.63-23.44,8-.79,13.94,2.36,18.78,8.49,5.79,8.16-1.45,17-9.52,19.76-6.05,1.84-13.08,2.66-20,.47C265.83,47,259,41.82,261.18,33.87a18.27,18.27,0,0,1,15.33-12.6c13.05-1.66,23.84,6.63,28.55,17.75,3.79,8.11,2.52,18.08-2.69,25.94C296.17,72.8,287.06,76.57,277,78.3a28.85,28.85,0,0,1-17.92-3.47c-2-1-3.92-3.1-2.84-6.08l3.08-2.92c12.26-9.68,32.22-8.15,41.88,5.1-2.26,9.95-13.44,16.66-23.49,18.39-6,.85-11-.28-16-1.42-5.92-3.15-12.81-7.33-13.63-14.36a20.16,20.16,0,0,1,6.47-17.83c13.23-8.66,31.17-6.19,39.8,8,5.74,10.16.43,22-7.76,28.81-6.1,3.84-12.2,7.68-20.17,6.47a22.8,22.8,0,0,1-11.84-6.31c-3.82-7.1-5.63-14.15-4.42-22.12,2.23-8.95,9.44-16.76,18.47-17.53,3,.08,5,1.14,6.89,4.19,6.65,13.18,2.26,28.07-7,38.83-2,.94-3.08,2.92-5.13,4.86-5.11,3.87-13.18,6.66-19.08,2.5-9.49-19.25-9.78-46.27,9.6-60.77C258,39.79,264,40,269,41.08s8.87,5.23,10.73,10.28C284.3,67.49,274.91,82.25,264.6,94c-6.16,5.84-16.23,8.58-24.1,3.37-3.92-3.1-6.84-6.18-7.71-11.21C228.56,57,256.21,32.74,283.2,33.45A19.34,19.34,0,0,1,298,40.84c2.89,4.08.76,9-1.34,13-9.34,12.76-25.55,20.34-40.41,14.94-6.92-3.18-8.68-12.23-7.5-19.2,2.21-7.94,7.34-12.81,13.47-17.65,8.13-4.79,20.28-10.47,28.09-3.27,1.69,12.05-5.62,23.86-17.67,25.55C265.73,51,265,41,270.76,36.44"/><path class="cls-3" d="M199.38,8.68c6.13-5.89,16.13-5.63,23-1.45,4.92,3.13,5.76,9.16,4.63,14.13a15.89,15.89,0,0,1-10.2,7.74c-4-.11-10-1.27-12.87-5.34,8.21-7.79,19.23-8.5,29.2-7.24,10,2.26,18.81,7.5,21.52,18.57,1.76,9-3.44,16.92-10.55,20.73-7.07,2.82-16.1,3.58-20.91-3.55-3.87-5.1-2.74-10.07.39-15,7.24-8.82,18.26-9.53,28.23-8.27,8,1.21,15.84,6.42,16.63,14.45-.45,17-19.57,21.49-33.6,22.12-5-.13-11.91-3.31-10.73-10.28,1.11-4,4.18-6.9,7.26-9.82,9.16-5.76,18.18-6.52,28.15-5.26,8,1.21,14.86,5.39,16.65,13.44,2.5,19.08-14.91,34.62-32.91,34.15-5-.13-9.91-3.26-10.76-9.29-.81-7,3.32-11.91,9.39-14.75,9.13-4.77,20.05-1.48,25.86,5.68,2.92,3.08,5.82,7.15,4.69,12.12-1.19,7-4.32,11.9-10.39,14.74a19.83,19.83,0,0,1-24.92-3.66C232.59,76.53,250,62,265,61.37c8,.21,11.81,7.31,11.62,14.31q1.31,7.54-3.39,14.92C267,98.44,254.84,105.12,246,98.89c-.89-4,1.21-8,4.29-10.9,11.29-10.7,27.39-14.28,42.33-11.89a13.05,13.05,0,0,1,7.44,21.2c-8.26,9.79-20.36,13.47-32.35,13.16-2,0-9,1.76-7.87-5.21,8.16-5.79,19.07-2.5,24.89,4.66.94,2,.87,5,.81,7-1.15,6-6.26,9.84-11.26,9.71-8-.21-15.86-5.42-19.65-13.52-3.76-9.1-3.47-20.1,4.71-26.89,9.21-7.76,24.23-8.37,33,.87,5.81,7.15,5.55,17.15,1.34,25-8.36,13.79-25.7,26.34-41.54,19.92l-3-.08c-2.92-3.08-7.87-5.21-7.77-9.21.14-5,2.29-10.94,8.34-12.78,1,0,1.06-2,2.06-1.95,10.1-3.74,23.2-7.39,30.93,2.81.95,2,1.92,3.06,2.87,5.08,1.81,7-1.42,16-7.55,20.81a39.34,39.34,0,0,1-39.14,5c-3.74-10.1,4.52-19.88,14.6-22.62,9-1.76,16.94,2.44,22.75,9.6,2.87,5.08,3.71,11.1.58,16-9.39,14.76-34.64,24.1-47.25,8.76-1.92-3.05,2.19-6.94,4.24-8.89,7.13-4.81,17.2-7.55,25.84-4.18-6.13,12-9.48-3.08,0,0-6.13,12-21.82,17.79-34.65,15.25-5.82-1.15-14.34-5.31-13-12.58,1.33-7.09,10.33-10.56,16.51-11.79a36.49,36.49,0,0,1,24.91,3.81c-11,11.16-29.35,17.08-44.79,13.83-6-.16-11.84-5.31-8.68-11.23,5.18-6.87,14.23-8.63,22.25-9.42,5-.87,11-.71,14.89,4.39,4.79,8.13.53,18-7.57,21.81a24.86,24.86,0,0,1-24.94-2.65c-5.87-5.16-7.66-13.21-6.45-21.18,3.34-12.92,15.55-20.6,27.65-24.28,3,.08,7-.82,8.94,2.23,3.87,5.11,1.74,10-1.36,14a16.2,16.2,0,0,1-15.16,5.61c-14-1.37-20.59-15.55-16.28-27.44,4.29-10.89,13.47-17.65,23.57-21.39,8.08-2.79,18.18-6.52,26.07-2.32.84,6-4.26,9.9-8.34,12.79-7.08,2.82-14.15,5.63-22.07,2.42-10.87-5.29-12.47-20.33-3.26-28.09a41.25,41.25,0,0,1,26.51-9.5c-.24,6.1-3.93.24,0,0-.24,6.1-8.3,7.39-12.93,7-5.52-.51-12.34-1.83-17.13-4.77-10.52-6.45-3.68-18.93,5.18-22.85,6.15-2.72,13.1-3.16,19.74-3.33.42,8.55-9.69,12.79-16.67,13.56-7.84.87-17.63.38-25.06-2.57"/><path class="cls-3" d="M199.42,34.45c5.75-6.17,13.45-11.39,22.24-9.22,3.23.8,6.73,2.56,8.38,5.6.66,1.22,1.27,2.82.47,3.85-1.08,1.4-4.7,1.29-6.22,1.12C216.51,35,205.9,27,204.44,19c-.67-3.65.91-7.78,4.45-9.31,2.83-1.22,7.39-.54,9.05,2.34,4.27,7.4-14.3,13.57-16.91,6.15"/><path class="cls-3" d="M198.91,109.46c5.31-4.73,13.21-6.94,20.1-4.82,6.07,1.86,11.78,7.49,11.76,14.17-.06,12.81-21.25,16.66-26.22,5-6.56-15.36,15.16-24.49,26.88-24.61,2.19,0,2.79.82,3.41,3a9.6,9.6,0,0,1,0,5,13.36,13.36,0,0,1-6.83,8c-5.54,3-17.18,5.86-21.9.16-6.14-7.41,2.71-15.06,8.73-18.41a85.41,85.41,0,0,1,28-9.53,48.44,48.44,0,0,1-22,11.12c-6.44,1.43-18.21,3.29-19.5-5.92C199.43,79,237.08,67.1,238.85,77.3c1.22,7-11.34,10.8-16.27,11.59-6.1,1-14.22-.08-16.58-6.81-2.41-6.89,4-13.79,9.18-17.32,3.4-2.32,7.74-4.48,12-4.05,3,.31,6.4,2.57,6.26,6-.26,6.68-12,7.13-16.44,5.64-6.71-2.28-10.17-9.55-7-16.08s11.73-8.47,18.33-6.46c7,2.12,11.84,9.36,4.51,14.43-12.44,8.61-32.63-2.47-33.1-17.18-.24-7.35,4.17-15.34,11.15-18.18,8-3.25,15.66,3.45,16.64,11.26a25.79,25.79,0,0,1-.14,6.45A20.13,20.13,0,0,1,226.8,50c-.57,1.79,0,1.76-1.89,1.51-3.39-.43-6.9-3.58-8.49-6.45-3.71-6.68,1.15-14.47,8.06-16.32,7.1-1.9,14.76,3.91,8.53,10.53-5.48,5.8-15,6.32-22.45,5.26a36.65,36.65,0,0,1-11.64-3.65"/><path class="cls-3" d="M198.79,107.63c6-2.61,14-5.41,20.6-4.38,11,1.7.82,15-3.33,18.58-4.35,3.8-10.62,7.53-16.64,6.25"/><path class="cls-3" d="M200.1,25.66c2.63-6.14,8.59-10.34,14.36-13.27,5.48-2.78,12-5.64,18.36-5,7.45.74,8.58,7,6.09,13.15a29.43,29.43,0,0,1-12,13.73c-5.2,3.21-12.62,6-18.78,4.42-8-2.09-5.64-10-1.32-14.55,4.83-5.08,11.53-8.9,17.82-11.84a78.09,78.09,0,0,1,10.35-4c3.09-1,7.67-2.86,10.93-2.56,1.67.16,1.73.84,2.25,2.62a18.74,18.74,0,0,1,.71,3.93,20.72,20.72,0,0,1-1,7.89,25.05,25.05,0,0,1-9.81,12.92c-5.16,3.49-12.28,5.47-18.4,3.6S211,28.82,213.51,23c2.7-6.29,9.59-8.91,15.9-9.94,6-1,15.42-2.28,20.71,1.39,4.88,3.39,3.55,10.09-.2,13.81-5,5-13.47,5.16-20.12,5.19-2.83,0-6.76.34-9.07-1.66-2.65-2.29-1.08-5.29,1.05-7.27,5.12-4.73,13.8-7.72,20.48-9.21,9.52-2.13,31.29,1.37,27.36,16-3.25,12.07-20.74,13.75-28.05,4.87-8.2-10-1.61-22.1,9.57-25.5,12.5-3.8,30.49,2.91,25.83,18.64-3.78,12.74-20.68,20.87-32,11.82-11.52-9.26-3.1-24.14,7.3-29.68C263.49,5.5,282.44,2.57,288.38,17c5.18,12.6-7.54,24.79-19.44,26.34-8,1-9.33-6.36-6.62-12.33,2.48-5.48,7.64-9.51,13.2-11.56,11.91-4.39,26.49,1.3,30.58,13.8s-6.93,22.65-18.38,24.58c-10.42,1.77-29.28-6.4-20.83-19.44,7.33-11.31,24.28-8.71,29.91,2.76,6,12.28-5.82,23.55-17.19,25.92-5.5,1.14-12.91.7-16.89-3.82-4.42-5-1-11.75,3.82-15,6.21-4.23,14.58-4,21.77-3.89,6.5.1,14.64.3,18.6,6.38,8.55,13.13-9.11,24-19.24,27.65-6.76,2.46-15.31,3.68-21.13-1.55-5.31-4.77-3.84-11.08,2.11-14.37,6.6-3.65,15.09-4.85,22.52-5.09,6.33-.2,15.83-.4,19.68,5.74,7.11,11.37-9.57,24.18-19,26.23-6.24,1.36-14.11-.34-17.36-6.43-3-5.53,1.1-10.46,6.06-12.73,8.64-3.94,29-6,33.69,5,2.9,6.79-2.39,13.39-7.71,17-5.81,3.95-13.94,8.24-21.1,8.35-5.47.08-14.28-5-9.45-11.26,3.65-4.74,12.46-7,18-8.22,6.29-1.35,13.82-1.24,18.42,4,4.17,4.73,4,11.7,1.21,17.07-4.31,8.34-23.14,27.56-30.86,12.72-2.82-5.42.81-10.52,6-12.53a16.74,16.74,0,0,1,17,3c9.95,8.65,7.31,23.1-1.79,31.17-8.2,7.28-24.7,10.86-32.56.92-9.12-11.56,11.05-19.64,19.27-21.31,5.09-1,12.49-1.82,16.41,2.47,5.13,5.61-1,13.6-5.19,17.69-5,4.83-12.11,9-19.17,9.45-6.51.44-14.69-5-9-11.62,4.37-5.1,11.48-9.15,18.27-9.23,5.89-.07,12.9,2.89,13.63,9.46,1.7,15.24-20.41,17.57-30.78,15.9-4.66-.75-11.46-2.72-13.46-7.57-2.53-6.15,5-10.47,9.63-12.54,5.24-2.38,11.64-4,17.37-2.54s9.56,6.31,8.13,12.21c-1.63,6.73-8,10.44-14.27,12.12a59.31,59.31,0,0,1-10.85,1.68c-2.8.23-6.61.78-9.11-.89-7.19-4.8,7.11-10.82,10.28-12.17,6.56-2.8,14.14-4.56,20.81-1.15,4.87,2.49,8.47,8,4.9,13.1-3.18,4.57-9.86,6.11-15.05,6.59-9,.82-25.92-1.84-27.79-12.95-2.17-12.91,18.71-16.52,23.45-5.17,2.26,5.4-.3,10.76-5.46,13.19-5.84,2.76-12.85,1.75-18.28-1.45-9.8-5.76-21.32-24.44-4.7-29.25a28.76,28.76,0,0,1,18.07,1c4.55,1.86,12.05,7,8,12.7-3.79,5.31-14,7.71-20,9.21-7.22,1.82-15.44,3.1-22.89,2.16-7.86-1-7.16-7.39-1.59-11.14,5.77-3.89,14.89-5,21.52-3.15,5.57,1.6,11.93,7.61,8.55,13.82-2.83,5.18-10.23,6.53-15.5,7.47-8.84,1.59-26,3.55-29.74-7.64-5.08-15.25,20.64-22.45,31-23.56,6.61-.71,14.48.5,19,5.91,4,4.78,2.65,11-1.54,15.15-9.42,9.31-30.34,4.81-36.22-6.87-6.57-13,16.32-19.16,24.65-20.84,7.32-1.47,15.39-1.9,22,2.06,5.63,3.34,8.47,9.38,5.48,15.56C275.16,147.9,257,151,244.73,147.81c-6-1.56-13.42-5.19-15.39-11.66-1.77-5.84,2.73-10.16,7.8-12,7.73-2.82,33.25-3.39,26.86,11.18-5.58,12.72-25.34,15.05-37.07,12.13-4.86-1.21-13.28-5-9.09-11.3,3.51-5.22,12.11-6.93,17.81-7.95,6.59-1.17,15.43-.78,19.37,5.67s-2.53,11.89-7.7,14.65c-13.51,7.22-30.06,9.67-45.2,8.35-2.48-.22-2.35-.77-1.77-3.08a15.25,15.25,0,0,1,1.82-4.25,22,22,0,0,1,7-6.89c6.28-4.07,14-5.28,21.34-5.67,4.76-.25,17.3-1,14.47,7.41-2.18,6.48-13.21,8-18.94,8.52-6.39.64-14.9-.72-17.91-7.32s4-12.66,9.17-15.46,12.54-4.51,17.48-.41,3.58,11.57-1.16,15.27c-8.86,6.92-30.22,4.17-30.86-9.63-.58-12.57,18-18.95,28.08-18,6.47.6,11.77,4.8,9.48,11.86-1.87,5.73-7.56,9.56-13.22,10.87-11.23,2.6-25.93-7.08-21.65-19.83,3.54-10.57,23.91-16.85,30.18-5.42,2.8,5.12-.79,11.09-4.8,14.35-5.05,4.1-13.1,6.09-18.95,2.57a14,14,0,0,1-6.43-13.15c.6-6,5.47-10.54,10.52-13.28a38.78,38.78,0,0,1,9.27-3.46c1.78-.43,2.87-.91,4.36.06a10,10,0,0,1,2.59,3.17,16,16,0,0,1-.14,15.59c-6.13,11.11-22.82,13.93-34.19,11.38"/><path class="cls-3" d="M199.45,31.75c7-7.32,16.06-11.08,26.08-11.82a8.7,8.7,0,0,1,7.84,6.21c1.76,9-2.5,18.94-11.6,22.7-7.08,2.82-14.05,1.63-18.89-4.5-2.87-5.07-.73-10,1.4-15,7.26-9.81,20.38-14.46,32.33-12.15,5,1.13,8.91,3.23,10.78,8.29,2.69,12.07-9.52,19.75-20.57,21.46-10,.74-24,1.37-27.52-10.61"/><path class="cls-3" d="M198.27,53.59c11.21-8.33,34-5.39,32.13,12.46-1.61,15.15-25.63,16.33-26.44.18-.73-14.54,15.65-23.75,28-16.84,5.34,3,9.68,8.7,8.85,15.09s-6.25,11.43-12.05,13.69c-12.16,4.73-28.91-3.67-28.95-17.74,0-13.58,16.23-24,28.76-19.84,17,5.69-.4,26.33-12.51,24.73-13.65-1.81-10.07-26.76-4.25-34,8.24-10.32,28.72-7.38,25,8.59-3,13.06-19.8,20.54-31.4,13.76a19.27,19.27,0,0,1-6.54-6.25"/><path class="cls-3" d="M199.23,83.84c2.43-9.63,9.36-17.69,18.32-22.76,5-2,10-3.09,13,1.88,4.06,7,2.12,14-2.83,19a23.55,23.55,0,0,1-28.26,2.62"/><path class="cls-3" d="M199.51,84.29c7.21-8.31,23.36-10.41,28.67,1.07s-7.84,18.7-17.79,17a13.92,13.92,0,0,1-11.66-14.16"/><path class="cls-3" d="M226.44,131.52c5.11-10.59,20.54-12.05,30.39-8.27,4.55,1.74,9.65,6.17,7.52,11.62s-10.09,5-14.65,3.26c-9.8-3.65-15.52-15.11-8.43-24,5.82-7.28,23.68-11.67,27.56.09,2,6-3.26,9.8-8.68,10.1a16.37,16.37,0,0,1-13-5.57c-6.32-7.11-4.54-17.2,4.35-21,7-3,22.23-1.89,23.05,8.26s-15.58,9.53-21.17,6c-7-4.48-10.8-14.09-7.3-21.94,1.88-4.22,6.47-8.47,11.43-7.84,5.65.71,7.67,8.95,8.19,13.65,1.18,10.8-7.31,20.22-18.48,18.5-11.4-1.76-11.74-15.38-4.14-21.9,4.2-3.6,10.75-5.14,15-.75,3.44,3.57,3.8,9.09,2,13.51-3.44,8.46-18.46,17.19-26.4,9.19-3.69-3.71-1.73-9.75,1.62-12.95a17.62,17.62,0,0,1,11.85-4.58c9.95-.06,14.57,10.07,6.42,16.64s-19.81,2-23.19-7.52C226.5,95.22,235.16,85.84,244,80.87,248.35,78.39,255,75,260,77.57c4.68,2.4,4.23,8.54,1.93,12.48-4.48,7.68-15.37,10.59-23.62,8.6a19.07,19.07,0,0,1-11.12-7.53"/><path class="cls-3" d="M199.45,144.28c6.43-1.28,15.74.17,19.18,6.5,3.86,7.1-1.67,14.32-9.17,14.3a13.87,13.87,0,0,1-10.54-4.62"/><path class="cls-3" d="M199.36,144c-1-2.7,2-4.62,4.08-6.57,3-.92,6.1-3.84,10.05-1.74,8.89,4.24,21.65,13.58,15.36,24.42s-20.15,5.47-29.8-.08"/></g></g></svg>