<?xml version="1.0" standalone="no"?>
<!DOCTYPE svg PUBLIC "-//W3C//DTD SVG 20010904//EN"
 "http://www.w3.org/TR/2001/REC-SVG-20010904/DTD/svg10.dtd">
<svg version="1.0" xmlns="http://www.w3.org/2000/svg"
 width="108.000000pt" height="108.000000pt" viewBox="0 0 108.000000 108.000000"
 preserveAspectRatio="xMidYMid meet">
<metadata>
Created by potrace 1.14, written by Peter Selinger 2001-2017
</metadata>
<g transform="translate(0.000000,108.000000) scale(0.100000,-0.100000)"
fill="#000000" stroke="none">
<path d="M70 828 l0 -101 103 6 c56 4 113 10 127 13 l25 7 -24 -27 c-14 -14
-73 -118 -131 -231 l-107 -204 -6 -91 -6 -90 255 0 254 0 0 28 c0 16 -3 63 -6
105 l-7 77 -108 0 c-59 0 -120 -5 -136 -11 -28 -10 -28 -10 8 28 20 21 83 129
143 242 l106 204 0 74 0 73 -245 0 -245 0 0 -102z"/>
<path d="M658 683 c-32 -34 -37 -45 -40 -98 l-3 -60 92 -3 c85 -3 92 -1 98 18
5 17 13 21 43 18 34 -3 37 -6 40 -35 l3 -33 -102 0 -103 0 -43 -42 -43 -42 0
-108 0 -108 36 -40 36 -40 92 0 c58 0 96 4 104 12 9 9 12 9 12 0 0 -9 29 -12
100 -12 l100 0 0 273 0 273 -33 32 -33 32 -160 0 -160 0 -36 -37z m232 -368
l0 -55 -45 0 -45 0 0 49 c0 53 5 59 58 60 l32 1 0 -55z"/>
</g>
</svg>
